/* XPM */
static char * bitcoin32_xpm[] = {
"32 32 435 2",
"  	c None",
". 	c #A5A6A5",
"+ 	c #A6A6A7",
"@ 	c #A7A7A7",
"# 	c #A8A8A8",
"$ 	c #A9A9A9",
"% 	c #AAAAAA",
"& 	c #AAAAAB",
"* 	c #ACADAC",
"= 	c #A4A4A4",
"- 	c #A4A5A4",
"; 	c #A5A5A5",
"> 	c #A6A7A9",
", 	c #A6A7AB",
"' 	c #A7A8AD",
") 	c #A8AAAE",
"! 	c #AAABAF",
"~ 	c #ABACAE",
"{ 	c #AEADAE",
"] 	c #AEAEAE",
"^ 	c #AFB0AF",
"/ 	c #B1B0B1",
"( 	c #A3A3A3",
"_ 	c #A5A5A4",
": 	c #A5A5A6",
"< 	c #A3A5AD",
"[ 	c #A2A6AF",
"} 	c #AEAA9C",
"| 	c #BBB087",
"1 	c #C1B27F",
"2 	c #C1B382",
"3 	c #BCB28D",
"4 	c #B1AFA6",
"5 	c #AAADB8",
"6 	c #ADAFB5",
"7 	c #B1B1B2",
"8 	c #B2B2B2",
"9 	c #B3B3B4",
"0 	c #B4B5B5",
"a 	c #A2A4AB",
"b 	c #A9A7A3",
"c 	c #CBB567",
"d 	c #E9C132",
"e 	c #F4C51F",
"f 	c #F7C61A",
"g 	c #F8C617",
"h 	c #F8C518",
"i 	c #F7C41B",
"j 	c #F3C222",
"k 	c #E7BF3C",
"l 	c #C9B77C",
"m 	c #B2B2B4",
"n 	c #B1B3B7",
"o 	c #B5B5B5",
"p 	c #B6B6B6",
"q 	c #B7B7B6",
"r 	c #A5A5A7",
"s 	c #C8B46C",
"t 	c #F6C71A",
"u 	c #FEC90D",
"v 	c #FFC90B",
"w 	c #FFC90A",
"x 	c #FFC80A",
"y 	c #FFC70A",
"z 	c #FFC60A",
"A 	c #FFC609",
"B 	c #FFC50A",
"C 	c #FFC409",
"D 	c #F2C026",
"E 	c #C4B791",
"F 	c #B5B6B8",
"G 	c #B7B7B7",
"H 	c #B8B8B8",
"I 	c #B9B9B9",
"J 	c #ADA899",
"K 	c #DDBD47",
"L 	c #FFCB08",
"M 	c #FFCA0A",
"N 	c #FFC509",
"O 	c #FFC307",
"P 	c #FFC302",
"Q 	c #D9BC64",
"R 	c #B9B8B7",
"S 	c #B9B9BA",
"T 	c #BBBBBB",
"U 	c #BCBCBC",
"V 	c #A3A3A4",
"W 	c #ADA998",
"X 	c #E3C03C",
"Y 	c #FFCC02",
"Z 	c #FFCA0B",
"` 	c #FFC709",
" .	c #FFC308",
"..	c #FFC208",
"+.	c #FFC102",
"@.	c #E3BD4F",
"#.	c #BDBBB5",
"$.	c #BBBCBE",
"%.	c #BDBEBD",
"&.	c #A6A6A4",
"*.	c #E1BE41",
"=.	c #FFCC03",
"-.	c #FFBA07",
";.	c #FFC408",
">.	c #FFC108",
",.	c #FFC107",
"'.	c #FFC007",
").	c #DFBE5F",
"!.	c #BEBEBB",
"~.	c #BFBFC0",
"{.	c #BFC0C0",
"].	c #A1A4AD",
"^.	c #D0B75E",
"/.	c #FFCB07",
"(.	c #FFC209",
"_.	c #FFB106",
":.	c #FFA905",
"<.	c #FFC309",
"[.	c #FFB806",
"}.	c #FFB506",
"|.	c #FFBF08",
"1.	c #FFBF06",
"2.	c #FBBE12",
"3.	c #D2BF89",
"4.	c #BFC0C4",
"5.	c #C1C2C2",
"6.	c #C3C3C3",
"7.	c #A5A5A8",
"8.	c #B0AA97",
"9.	c #FAC814",
"0.	c #FFB807",
"a.	c #FFC30A",
"b.	c #FFAB05",
"c.	c #FFA704",
"d.	c #FFAA05",
"e.	c #FFAF06",
"f.	c #FFA504",
"g.	c #FFA404",
"h.	c #FFBE07",
"i.	c #FFC207",
"j.	c #FFBF07",
"k.	c #FFBE02",
"l.	c #ECBE40",
"m.	c #C6C1B3",
"n.	c #C4C4C4",
"o.	c #A2A5AF",
"p.	c #D8BB51",
"q.	c #FECA0C",
"r.	c #FFA904",
"s.	c #FFA804",
"t.	c #FFA604",
"u.	c #FF9F03",
"v.	c #FF9201",
"w.	c #FF9001",
"x.	c #FF9B03",
"y.	c #FFBE05",
"z.	c #FFBD04",
"A.	c #D1C297",
"B.	c #C5C5C5",
"C.	c #C6C6C6",
"D.	c #A6A6A6",
"E.	c #A7A6A7",
"F.	c #A8A8A7",
"G.	c #F1C424",
"H.	c #FFAD05",
"I.	c #FFB907",
"J.	c #FFBA08",
"K.	c #FFB607",
"L.	c #FFAE05",
"M.	c #FFDF0B",
"N.	c #FFC908",
"O.	c #FFB406",
"P.	c #FFBD07",
"Q.	c #FFBE06",
"R.	c #FFBC06",
"S.	c #FFBC00",
"T.	c #E3BF60",
"U.	c #C6C5C1",
"V.	c #C7C7C7",
"W.	c #BCB086",
"X.	c #FFB206",
"Y.	c #FFAC05",
"Z.	c #FFE50E",
"`.	c #FFE10E",
" +	c #FFD90C",
".+	c #FFD70B",
"++	c #FFDB0A",
"@+	c #FFEC0C",
"#+	c #FFDC0A",
"$+	c #FFD709",
"%+	c #FFCE08",
"&+	c #FFBC01",
"*+	c #F3BD2D",
"=+	c #C9C6BE",
"-+	c #C8C8C8",
";+	c #A6A8AE",
">+	c #C9B570",
",+	c #FAC713",
"'+	c #FFBC07",
")+	c #FFB707",
"!+	c #FFDE0E",
"~+	c #FFF410",
"{+	c #FFE10D",
"]+	c #FFB507",
"^+	c #FFC006",
"/+	c #FFD809",
"(+	c #FFEA0C",
"_+	c #FFE40A",
":+	c #FFC507",
"<+	c #FFAD04",
"[+	c #FFBD06",
"}+	c #FFBB06",
"|+	c #FFBB03",
"1+	c #FDBB0C",
"2+	c #CBC7BD",
"3+	c #C9C9C9",
"4+	c #CACACA",
"5+	c #A7A8B0",
"6+	c #CFB865",
"7+	c #FCC810",
"8+	c #FFBE08",
"9+	c #FFB706",
"0+	c #FFCC0B",
"a+	c #FFD90D",
"b+	c #FFDF0D",
"c+	c #FFCA08",
"d+	c #FFB105",
"e+	c #FFA803",
"f+	c #FFE009",
"g+	c #FFE40B",
"h+	c #FFED0C",
"i+	c #FFEF0B",
"j+	c #FFE70A",
"k+	c #FFAC04",
"l+	c #FFA403",
"m+	c #FFBB05",
"n+	c #FFB900",
"o+	c #CCC8BC",
"p+	c #CBCACA",
"q+	c #CBCBCB",
"r+	c #A9A9AA",
"s+	c #A8AAB2",
"t+	c #D0B965",
"u+	c #FCC80F",
"v+	c #FFC40A",
"w+	c #FFB606",
"x+	c #FFF110",
"y+	c #FFDF0C",
"z+	c #FFC406",
"A+	c #FFB006",
"B+	c #FFC808",
"C+	c #FFCE09",
"D+	c #FFC907",
"E+	c #FFBD05",
"F+	c #FFD107",
"G+	c #FFEC0B",
"H+	c #FFE309",
"I+	c #FFBC05",
"J+	c #FFB605",
"K+	c #FFAF04",
"L+	c #FFBA05",
"M+	c #FFB800",
"N+	c #CDC9BD",
"O+	c #CCCCCC",
"P+	c #AAABAB",
"Q+	c #AAABB1",
"R+	c #CDB76F",
"S+	c #FBC612",
"T+	c #FFBB08",
"U+	c #FFDB0C",
"V+	c #FFED0E",
"W+	c #FFC708",
"X+	c #FFC806",
"Y+	c #FFD507",
"Z+	c #FFEC0A",
"`+	c #FFDC08",
" @	c #FFE909",
".@	c #FFDA07",
"+@	c #FFAE04",
"@@	c #FFB904",
"#@	c #FEB907",
"$@	c #CECBBF",
"%@	c #CDCDCD",
"&@	c #ACACAB",
"*@	c #ABADB1",
"=@	c #C3B584",
"-@	c #FFBF05",
";@	c #FFB905",
">@	c #FFA204",
",@	c #FFEB0A",
"'@	c #FFED0A",
")@	c #FFE509",
"!@	c #FFA103",
"~@	c #FFB901",
"{@	c #F7BC25",
"]@	c #CECBC3",
"^@	c #CECECE",
"/@	c #ADACAD",
"(@	c #AEAEB0",
"_@	c #B5B1A6",
":@	c #F4C322",
"<@	c #FFBF09",
"[@	c #FFB906",
"}@	c #FFD109",
"|@	c #FFA304",
"1@	c #FFD90A",
"2@	c #FFEB0B",
"3@	c #FFED09",
"4@	c #FFE708",
"5@	c #FFC605",
"6@	c #FFB700",
"7@	c #EBC156",
"8@	c #CFCDC8",
"9@	c #CFCFCF",
"0@	c #B0B0B0",
"a@	c #ACAFBA",
"b@	c #E3BE47",
"c@	c #FFDA0A",
"d@	c #FFD308",
"e@	c #FFDB09",
"f@	c #FFEA0A",
"g@	c #FFE208",
"h@	c #FFE609",
"i@	c #FFD106",
"j@	c #FFB104",
"k@	c #FFB805",
"l@	c #FFB803",
"m@	c #DDC792",
"n@	c #CFCECE",
"o@	c #D0D0D0",
"p@	c #B1B1B1",
"q@	c #B0B2B6",
"r@	c #C0B696",
"s@	c #FEC40B",
"t@	c #FFB005",
"u@	c #FFC405",
"v@	c #FFE50A",
"w@	c #FFF20C",
"x@	c #FFF00B",
"y@	c #FFEE0A",
"z@	c #FFEF0A",
"A@	c #FFF00A",
"B@	c #FFD908",
"C@	c #FFC005",
"D@	c #FFB604",
"E@	c #FFB804",
"F@	c #F4BD32",
"G@	c #D4CCBA",
"H@	c #CFD0D0",
"I@	c #D0D1D1",
"J@	c #B3B3B3",
"K@	c #B2B4BA",
"L@	c #E1BE4F",
"M@	c #FFC304",
"N@	c #FFBA04",
"O@	c #FFC306",
"P@	c #FFC807",
"Q@	c #FFB204",
"R@	c #FFB405",
"S@	c #FEB708",
"T@	c #E1C680",
"U@	c #CFD0D2",
"V@	c #D1D1D1",
"W@	c #B5B4B5",
"X@	c #B8B7B5",
"Y@	c #F5C121",
"Z@	c #FFC206",
"`@	c #EFBF49",
" #	c #D1CFCB",
".#	c #D1D1D2",
"+#	c #B8B8B9",
"@#	c #C2BBA2",
"##	c #F7C01C",
"$#	c #FFC104",
"%#	c #F4BD33",
"&#	c #D4CEBE",
"*#	c #D0D1D4",
"=#	c #D2D1D2",
"-#	c #D2D2D2",
";#	c #BAB9BA",
">#	c #BABBBC",
",#	c #C8BD9B",
"'#	c #F1C030",
")#	c #FFB704",
"!#	c #F1BF43",
"~#	c #D5CDBB",
"{#	c #CFD1D6",
"]#	c #D2D2D1",
"^#	c #BBBABA",
"/#	c #BCBDBC",
"(#	c #BCBDC1",
"_#	c #C6BFAA",
":#	c #E2C05E",
"<#	c #FBBE13",
"[#	c #FFBD00",
"}#	c #FFBD02",
"|#	c #F8BB23",
"1#	c #E4C577",
"2#	c #D2CFC7",
"3#	c #D0D1D5",
"4#	c #D2D1D1",
"5#	c #BDBEBE",
"6#	c #BFBFBE",
"7#	c #BFC0C3",
"8#	c #C3C1BC",
"9#	c #CDC2A3",
"0#	c #E0C16A",
"a#	c #F4BE2A",
"b#	c #FFBB01",
"c#	c #FFBA00",
"d#	c #F2BD38",
"e#	c #E1C57E",
"f#	c #D6CBB3",
"g#	c #CFD0D1",
"h#	c #D0D1D2",
"i#	c #C1C1C1",
"j#	c #C2C3C3",
"k#	c #C3C4C4",
"l#	c #C6C5C2",
"m#	c #CCC6B7",
"n#	c #D4C6A0",
"o#	c #DAC590",
"p#	c #D9C692",
"q#	c #D5C9A7",
"r#	c #D1CCC0",
"s#	c #D0CDC7",
"t#	c #CFCFCD",
"u#	c #C8C8C9",
"v#	c #C9CACA",
"w#	c #CACBCC",
"x#	c #CCCCCD",
"y#	c #CDCDCE",
"z#	c #CECDCE",
"A#	c #CECFCF",
"B#	c #D1D2D2",
"                                                                ",
"                        . + @ # $ % & *                         ",
"                  = - ; + > , ' ) ! ~ { ] ^ /                   ",
"              ( = _ : < [ } | 1 2 3 4 5 6 7 8 9 0               ",
"            ( = ; a b c d e f g h i j k l m n o p q             ",
"          ( = : r s t u v w x y z A A B C D E F G H I           ",
"        ( = _ J K L M v v x y y z A N N C O P Q R S T U         ",
"      V = : W X Y Z v v x x y A ` N C C  . ...+.@.#.$.%.        ",
"      = ; &.*.=.Z v w x y y y N -.N ;.;. ...>.,.'.).!.~.{.      ",
"    - ; ].^./.Z v w x w y x (._.:.A <.[.}.|.'.'.1.2.3.4.5.6.    ",
"    _ 7.8.9.Z v v x x 0.a.-.b.c.d.e.f.g.b.h.i.j.j.k.l.m.6.n.    ",
"    . o.p.q.v v x x A c.r.s.:.t.g.c.f.u.v.w.x.j.h.y.z.A.n.B.C.  ",
"  D.E.F.G.v v w y x 0.d.d.H._.I.J.K.L.M.N.O.c.P.Q.R.S.T.U.C.V.  ",
"  @ , W.f v w w x w X.Y.(.Z.`. +.+M ++@+#+$+%+H.Q.R.&+*+=+V.-+  ",
"  # ;+>+,+y '+)+-...Y.(.!+~+{+A ]+^+/+(+_+:+<+c.[+}+|+1+2+3+4+  ",
"  $ 5+6+7+8+9+0.}+/.y.0+a+b+c+d+e+f+g+h+i+j+k+l+Q.}+m+n+o+p+q+  ",
"  r+s+t+u+v+w+x+y+z+^+A+B+C+D+E+F+@+@+G+G+H+I+J+K+I+L+M+N+q+O+  ",
"  P+Q+R+S+y T+Q.U+V+ .e.W+X+Y+_+@+G+G+G+Z+`+ @.@+@m+@@#@$@O+%@  ",
"  &@*@=@h z z h.-@;@w+H.>@Q.g+@+@+G+G+,@'@`+)@!@I+;@~@{@]@%@^@  ",
"  /@(@_@:@z N N <@[@}@C+u.|@k+1@2@G+,@Z+3@4@5@+@L+;@6@7@8@^@9@  ",
"    0@a@b@B C C |.}+D+/+<+c@d@e@f@,@f@g@h@i@j@k@@@l@6@m@n@o@o@  ",
"    p@q@r@s@<.<. .|.h.t@u@v@w@x@y@z@A@B@C@D@k@@@E@6@F@G@H@I@    ",
"    8 J@K@L@M@......>.I.d+N@O@P@P@-@Q@R@L+;@;@k@l@S@T@U@V@V@    ",
"      W@p X@Y@Z@>.'.'.j.h.Q.[+[+R.m+m+L+;@;@E@E@l@`@ #.#V@      ",
"      p G +#@###$#'.j.j.h.[+[+R.m+m+L+L+;@E@E@l@%#&#*#=#-#      ",
"        H ;#>#,#'#-@-@h.Q.[+R.}+m+L+L+;@k@M+)#!#~#{#]#-#        ",
"          ^#/#(#_#:#<#[#}#I+}+m+L+;@@@M+6@|#1#2#3#4#-#          ",
"            5#6#7#8#9#0#a#b#c#n+M+M+;@d#e#f#g#h#]#-#            ",
"                i#j#k#l#=+m#n#o#p#q#r#s#t#H@V@]#-#              ",
"                  n.B.C.V.u#v#w#x#y#z#A#o@V@B#                  ",
"                      V.-+3+q+O+%@^@9@9@V@                      ",
"                                                                "};
