/* XPM */
static char * bitcoin16_xpm[] = {
"16 16 151 2",
"  	c None",
". 	c #A8A8A7",
"+ 	c #AAA9A9",
"@ 	c #A4A4A4",
"# 	c #A3A4A9",
"$ 	c #A2A5B0",
"% 	c #AFAB9E",
"& 	c #B1AEA2",
"* 	c #A9ACB8",
"= 	c #AEAFB2",
"- 	c #B2B2B2",
"; 	c #A7A6A3",
"> 	c #DCBC49",
", 	c #FCC810",
"' 	c #FFC80A",
") 	c #FFC60A",
"! 	c #FBC412",
"~ 	c #DCBB55",
"{ 	c #B3B4B9",
"] 	c #B7B7B6",
"^ 	c #B4AC8D",
"/ 	c #FDCA0B",
"( 	c #FFC90B",
"_ 	c #FFC70A",
": 	c #FFC709",
"< 	c #FFC409",
"[ 	c #FFC308",
"} 	c #FBC10F",
"| 	c #C0BAA8",
"1 	c #BCBCBD",
"2 	c #A4A5A4",
"3 	c #A9A79F",
"4 	c #FECB0A",
"5 	c #FFC90C",
"6 	c #FFC90A",
"7 	c #FFC109",
"8 	c #FFBB07",
"9 	c #FFC208",
"0 	c #FFBE08",
"a 	c #FFC008",
"b 	c #FABF14",
"c 	c #C0BFBC",
"d 	c #C1C2C1",
"e 	c #A2A4AB",
"f 	c #E3BF3D",
"g 	c #FFB406",
"h 	c #FFA604",
"i 	c #FFA805",
"j 	c #FF9F03",
"k 	c #FFB706",
"l 	c #FFBE03",
"m 	c #E1BF62",
"n 	c #C4C4C6",
"o 	c #A8A8A8",
"p 	c #FEC90C",
"q 	c #FFCA0A",
"r 	c #FFAD05",
"s 	c #FFBF08",
"t 	c #FFD90A",
"u 	c #FFCF09",
"v 	c #FFB806",
"w 	c #FFBE06",
"x 	c #F8BC1B",
"y 	c #C5C6CA",
"z 	c #A9A9A8",
"A 	c #B7AE92",
"B 	c #FFC608",
"C 	c #FFB506",
"D 	c #FFC007",
"E 	c #FFBD07",
"F 	c #FFE80F",
"G 	c #FFBA05",
"H 	c #FFE50B",
"I 	c #FFE20A",
"J 	c #FFA203",
"K 	c #FFBA00",
"L 	c #C8C9CE",
"M 	c #CBCBCB",
"N 	c #A9AAAA",
"O 	c #B9B093",
"P 	c #FFC808",
"Q 	c #FFC809",
"R 	c #FFE00C",
"S 	c #FFCB08",
"T 	c #FFCF07",
"U 	c #FFE80B",
"V 	c #FFEC0B",
"W 	c #FFE60A",
"X 	c #FFD207",
"Y 	c #FFB204",
"Z 	c #FFB800",
"` 	c #C9CCD0",
" .	c #CDCDCD",
"..	c #B0AFAB",
"+.	c #FFC60B",
"@.	c #FFA103",
"#.	c #FFD60A",
"$.	c #FFEC0A",
"%.	c #FFE909",
"&.	c #FFBB05",
"*.	c #FFBC06",
"=.	c #FABA15",
"-.	c #CCCDD2",
";.	c #ADB0B9",
">.	c #EBC036",
",.	c #FFBE07",
"'.	c #FFC407",
").	c #FFCF08",
"!.	c #FFE80A",
"~.	c #FFEF0A",
"{.	c #FFCB06",
"].	c #FFB504",
"^.	c #FFB801",
"/.	c #EAC15D",
"(.	c #CFD0D2",
"_.	c #B4B3B3",
":.	c #BCB7A8",
"<.	c #FFC300",
"[.	c #FFC108",
"}.	c #FFBF07",
"|.	c #FFB705",
"1.	c #FFBF06",
"2.	c #FFBD06",
"3.	c #FFB304",
"4.	c #FFB805",
"5.	c #FEB808",
"6.	c #D2CFC7",
"7.	c #D1D1D1",
"8.	c #B8B8B9",
"9.	c #CCBC8D",
"0.	c #FFC004",
"a.	c #FFB803",
"b.	c #D8CBAB",
"c.	c #D2D2D3",
"d.	c #BDBEC0",
"e.	c #C7C0AB",
"f.	c #EBBF43",
"g.	c #FFBC00",
"h.	c #FFB900",
"i.	c #ECC051",
"j.	c #D2CFC4",
"k.	c #C2C3C3",
"l.	c #C4C5C8",
"m.	c #C6C7CC",
"n.	c #CEC9BA",
"o.	c #CFCBBE",
"p.	c #CDCED4",
"q.	c #CFD0D3",
"r.	c #D2D2D1",
"s.	c #CCCCCC",
"t.	c #CECECD",
"              . +               ",
"        @ # $ % & * = -         ",
"      @ ; > , ' ) ! ~ { ]       ",
"    @ ^ / ( ' _ : < [ } | 1     ",
"  2 3 4 5 6 ' 7 8 9 0 a b c d   ",
"  e f ( ' 8 g h i j j k l m n   ",
"  o p q q r s q _ t u v w x y   ",
"z A B C D E F : G H I J w K L M ",
"N O P Q R C S T U V W X Y Z `  .",
"  ..+.< v [ @.#.V $.%.&.*.=.-.  ",
"  ;.>.< ,.'.).!.~.%.{.].^./.(.  ",
"  _.:.<.[.}.|.1.2.3.G 4.5.6.7.  ",
"    8.9.0.}.w *.&.G a.v b.c.    ",
"      d.e.f.g.h.Z a.i.j.c.      ",
"        k.l.m.n.o.p.q.r.        ",
"              s.t.              "};
